<?xml version="1.0" standalone="no"?>
<!DOCTYPE svg PUBLIC "-//W3C//DTD SVG 20010904//EN"
 "http://www.w3.org/TR/2001/REC-SVG-20010904/DTD/svg10.dtd">
<svg version="1.0" xmlns="http://www.w3.org/2000/svg"
 width="1000.000000pt" height="1000.000000pt" viewBox="0 0 1000.000000 1000.000000"
 preserveAspectRatio="xMidYMid meet">
<metadata>
Created by potrace 1.11, written by Peter Selinger 2001-2013
</metadata>
<g transform="translate(0.000000,1000.000000) scale(0.100000,-0.100000)"
fill="#000000" stroke="none">
<path d="M4714 9991 c-2 -3 -26 -5 -52 -6 -54 -2 -218 -15 -241 -20 -37 -6
-99 -15 -145 -21 -26 -3 -69 -9 -95 -15 -25 -5 -53 -10 -61 -11 -13 0 -161
-30 -224 -45 -11 -2 -30 -6 -41 -8 -17 -3 -222 -59 -250 -69 -5 -1 -27 -6 -47
-11 -21 -4 -38 -11 -38 -17 0 -5 -4 -7 -9 -4 -5 3 -67 -15 -137 -40 -71 -25
-144 -51 -161 -57 -18 -6 -33 -14 -33 -19 0 -5 -4 -7 -9 -4 -5 3 -22 -1 -37
-9 -16 -8 -32 -15 -36 -15 -4 0 -38 -14 -75 -32 -38 -17 -74 -33 -82 -34 -8
-1 -17 -6 -20 -11 -3 -4 -10 -9 -16 -10 -14 -2 -169 -75 -175 -82 -3 -3 -36
-22 -75 -41 -38 -18 -73 -39 -77 -45 -4 -5 -8 -6 -8 -2 0 5 -13 -1 -29 -12
-16 -12 -32 -21 -34 -21 -10 0 -142 -84 -145 -92 -2 -5 -8 -6 -13 -2 -5 3 -9
0 -9 -5 0 -6 -7 -11 -15 -11 -8 0 -15 -4 -15 -8 0 -5 -16 -16 -35 -25 -19 -9
-35 -22 -35 -29 0 -6 -3 -9 -6 -5 -6 5 -28 -8 -144 -91 -13 -9 -32 -25 -42
-34 -10 -10 -18 -15 -18 -12 0 7 -118 -84 -152 -118 -16 -15 -28 -25 -28 -22
0 8 -124 -99 -249 -215 -57 -53 -108 -97 -112 -99 -5 -2 -9 -10 -9 -18 0 -9
-4 -12 -10 -9 -5 3 -10 1 -10 -4 0 -6 -9 -20 -20 -31 -11 -11 -20 -18 -20 -15
0 2 -19 -17 -42 -43 -24 -26 -46 -48 -50 -50 -5 -2 -8 -11 -8 -19 0 -9 -3 -14
-6 -10 -6 6 -34 -16 -34 -26 0 -2 -15 -20 -33 -39 -17 -19 -48 -54 -67 -78
-19 -24 -50 -61 -69 -82 -18 -21 -31 -38 -28 -38 2 0 -11 -17 -30 -37 -20 -21
-50 -60 -69 -88 -18 -27 -42 -61 -53 -75 -11 -13 -17 -28 -15 -32 3 -4 1 -8
-5 -8 -11 0 -91 -115 -91 -131 0 -5 -5 -9 -11 -9 -5 0 -7 -4 -4 -10 3 -5 2
-10 -4 -10 -9 0 -42 -51 -41 -65 0 -3 -9 -14 -20 -25 -12 -12 -18 -25 -15 -30
4 -6 1 -10 -5 -10 -6 0 -15 -10 -21 -22 -5 -13 -15 -32 -22 -43 -28 -45 -61
-110 -59 -117 1 -5 -2 -8 -7 -8 -9 0 -71 -121 -71 -139 0 -6 -3 -11 -8 -11 -4
0 -14 -15 -21 -32 -8 -18 -32 -71 -54 -118 -71 -154 -200 -485 -213 -544 -2
-11 -15 -54 -28 -95 -14 -42 -27 -87 -30 -101 -3 -14 -9 -40 -15 -57 -5 -18
-7 -33 -4 -33 3 0 1 -6 -5 -12 -5 -7 -13 -26 -16 -43 -3 -16 -16 -79 -30 -140
-13 -60 -27 -126 -30 -145 -9 -52 -16 -101 -21 -135 -2 -16 -4 -30 -5 -30 -3
0 -9 -40 -15 -95 -3 -30 -8 -68 -9 -85 -5 -42 -15 -137 -22 -220 -8 -84 -12
-616 -5 -630 3 -5 5 -27 6 -50 2 -54 16 -215 21 -240 3 -11 6 -42 9 -70 2 -27
6 -60 9 -72 2 -11 8 -43 12 -70 3 -26 8 -57 10 -68 3 -11 7 -35 10 -54 3 -18
8 -43 10 -55 3 -11 7 -34 10 -51 3 -16 8 -37 11 -45 3 -8 8 -28 10 -45 2 -16
10 -51 18 -77 8 -27 12 -48 9 -48 -3 0 0 -10 7 -21 6 -12 12 -31 14 -43 8 -50
17 -81 27 -93 6 -7 8 -13 4 -13 -3 0 0 -16 8 -35 8 -19 13 -35 11 -35 -4 0 30
-104 52 -160 3 -8 7 -22 9 -30 2 -9 11 -34 20 -55 10 -22 18 -42 19 -45 1 -3
5 -17 9 -33 5 -15 12 -27 18 -27 5 0 6 -5 3 -10 -4 -6 -3 -16 3 -23 5 -7 17
-36 27 -64 11 -29 22 -53 25 -53 4 0 7 -6 7 -12 0 -18 115 -261 128 -270 5 -4
6 -8 2 -8 -5 0 0 -15 11 -32 11 -18 39 -69 62 -113 24 -44 54 -97 67 -117 12
-21 23 -39 23 -42 0 -8 84 -131 95 -138 5 -4 7 -8 2 -8 -8 0 122 -193 135
-198 4 -2 8 -9 8 -16 0 -7 13 -27 30 -44 16 -18 30 -36 30 -41 0 -6 6 -14 13
-18 7 -4 21 -21 32 -38 16 -25 91 -118 141 -175 8 -8 35 -39 61 -69 27 -30 89
-97 138 -149 50 -51 91 -98 93 -103 2 -5 10 -9 18 -9 9 0 12 -4 9 -10 -3 -5 1
-10 10 -10 9 0 13 -4 10 -10 -3 -5 -2 -10 3 -10 4 0 29 -19 53 -43 97 -90 129
-117 140 -117 7 0 9 -3 6 -6 -4 -4 66 -65 155 -135 89 -71 164 -127 166 -124
3 2 13 -7 24 -20 11 -14 23 -23 28 -20 5 3 10 1 12 -4 5 -12 201 -144 215
-144 7 0 14 -6 17 -14 3 -7 12 -13 20 -13 8 0 16 -4 18 -8 5 -12 269 -162 279
-159 4 1 15 -5 25 -14 16 -14 128 -71 144 -74 3 0 15 -6 26 -13 12 -6 24 -8
28 -5 3 3 6 2 6 -3 0 -9 26 -23 105 -55 17 -7 32 -13 35 -14 3 -1 21 -9 40
-17 35 -15 71 -30 80 -33 3 -1 19 -7 35 -14 61 -24 165 -63 178 -65 6 -2 19
-6 27 -9 40 -16 279 -90 300 -92 8 -1 33 -7 55 -13 22 -7 87 -23 145 -36 92
-22 141 -31 215 -42 11 -1 20 -3 20 -4 0 -3 22 -6 80 -14 22 -3 40 -5 40 -6 0
-2 45 -9 95 -14 25 -3 61 -7 80 -10 48 -7 141 -17 225 -22 102 -7 608 -7 690
0 201 16 216 18 300 31 17 3 48 7 70 10 22 3 54 8 70 11 17 3 44 7 60 9 17 2
30 4 30 5 0 1 9 3 20 5 59 9 102 17 120 22 11 3 29 7 40 8 11 2 40 8 65 15 25
7 56 14 70 16 14 3 32 7 40 11 8 3 28 7 44 9 17 3 32 8 35 12 4 4 15 8 26 10
17 2 137 35 173 47 7 3 13 4 15 4 3 0 165 57 197 69 14 5 28 10 32 11 4 1 25
9 45 18 79 33 88 36 102 39 8 1 17 6 20 11 3 4 13 9 21 11 8 2 39 14 68 28 29
13 55 24 58 24 16 0 314 154 314 163 0 6 3 7 6 4 4 -4 19 2 34 13 15 11 30 17
34 13 3 -3 6 -2 6 4 0 6 8 13 18 16 9 4 34 16 54 29 20 13 73 45 117 71 45 27
81 53 81 58 0 6 4 8 9 5 5 -3 14 1 21 9 7 8 17 15 22 15 5 0 14 5 21 10 17 15
135 100 183 133 22 15 57 42 77 61 20 18 37 32 37 29 0 -2 54 41 120 97 66 56
120 106 120 112 0 6 3 8 7 5 3 -4 16 3 28 16 11 12 49 48 82 80 34 31 61 57
59 57 -1 0 42 44 96 99 53 54 94 101 91 105 -4 3 -1 6 5 6 12 0 171 184 247
286 28 37 55 73 62 80 7 6 14 18 15 25 2 7 12 22 23 33 24 24 52 67 53 80 0 5
5 12 10 15 14 8 102 140 102 152 0 5 5 9 11 9 5 0 8 4 5 9 -4 5 -2 11 3 13 29
11 339 597 323 612 -3 3 0 6 6 6 7 0 12 7 12 15 0 8 4 23 10 33 10 18 68 157
71 170 1 4 6 18 11 32 42 107 56 150 52 150 -2 0 3 11 12 25 9 14 14 25 11 25
-3 0 1 16 9 35 8 20 12 40 9 45 -4 6 -2 10 3 10 6 0 23 50 37 110 1 3 7 25 14
50 7 25 15 52 17 60 2 8 8 33 14 55 6 22 13 51 16 65 2 14 13 63 23 110 11 47
22 101 25 120 2 19 7 46 10 59 3 14 8 47 11 74 3 28 8 53 9 56 2 3 7 31 10 61
4 30 8 69 10 85 5 41 15 145 22 230 4 39 6 196 6 350 0 257 -4 362 -18 470 -2
22 -6 56 -8 75 -10 92 -18 160 -21 177 -2 10 -7 43 -11 73 -8 58 -10 69 -13
73 -2 1 -4 14 -6 30 -3 22 -17 93 -31 152 -1 6 -5 24 -9 40 -3 17 -7 35 -9 40
-1 6 -7 28 -11 50 -5 22 -10 42 -10 45 -1 3 -5 19 -9 35 -8 30 -18 64 -31 100
-4 11 -9 27 -10 35 -3 28 -78 255 -86 265 -5 5 -9 18 -9 30 0 12 -7 30 -15 41
-8 10 -15 29 -15 41 0 12 -7 28 -15 36 -8 8 -12 17 -9 20 3 3 1 13 -4 24 -14
24 -52 112 -52 117 0 21 -178 379 -194 388 -6 4 -8 8 -4 8 10 0 -32 80 -41 80
-4 0 -8 6 -8 13 0 14 -62 119 -77 129 -6 4 -7 8 -2 8 5 0 2 8 -6 18 -9 9 -22
31 -31 47 -8 17 -25 40 -37 53 -11 12 -17 22 -13 22 4 0 -1 7 -12 16 -11 8
-18 16 -15 18 8 4 -100 156 -111 156 -5 0 -8 4 -6 9 3 12 -62 101 -75 101 -6
0 -8 3 -5 6 4 4 -6 21 -21 39 -15 17 -36 43 -47 57 -68 86 -158 189 -242 277
-29 30 -53 58 -53 62 0 4 -9 11 -20 14 -11 3 -20 12 -20 18 -1 7 -19 26 -40
42 -21 17 -39 36 -40 43 0 6 -3 12 -7 12 -5 0 -31 23 -60 50 -29 28 -55 50
-58 50 -3 0 -19 16 -36 35 -17 19 -35 35 -40 35 -5 0 -21 12 -36 28 -24 24
-49 44 -147 122 -10 8 -35 29 -54 45 -20 17 -33 23 -28 15 4 -8 -1 -5 -10 8
-9 12 -21 22 -27 22 -5 0 -18 10 -28 22 -11 11 -19 17 -19 12 0 -5 -4 -4 -8 2
-4 5 -36 30 -72 55 -36 24 -67 47 -70 51 -3 3 -12 8 -20 10 -8 2 -26 13 -40
26 -14 12 -33 25 -44 28 -10 3 -26 12 -35 20 -9 8 -20 14 -25 13 -5 0 -12 4
-15 9 -7 11 -198 122 -211 122 -4 0 -10 3 -12 8 -4 10 -219 116 -393 192 -92
41 -115 50 -125 50 -5 0 -18 4 -28 10 -36 20 -145 59 -152 55 -5 -3 -10 -1
-12 5 -1 5 -12 11 -23 13 -11 2 -27 7 -35 10 -24 10 -132 44 -165 53 -33 8
-33 8 -55 16 -28 10 -105 31 -125 34 -11 1 -22 3 -25 5 -3 1 -9 3 -15 4 -5 1
-17 4 -25 8 -19 7 -147 36 -186 42 -16 3 -49 9 -74 14 -25 5 -48 7 -52 5 -4
-2 -10 1 -13 6 -4 6 -17 10 -28 9 -12 -2 -31 0 -42 4 -11 3 -40 8 -65 11 -25
3 -65 8 -90 12 -84 11 -167 20 -295 30 -85 7 -625 11 -631 5z"/>
</g>
</svg>
